HIERARCHY
ROOT hip
{
	OFFSET 0.000000 0.000000 0.000000 
	CHANNELS 6 Xposition Yposition Zposition Xrotation Zrotation Yrotation
	JOINT abdomen
	{
		OFFSET 0.000000 3.402643 0.000000 
		CHANNELS 3 Xrotation Zrotation Yrotation
		JOINT chest
		{
			OFFSET 0.000000 8.438565 -0.680529 
			CHANNELS 3 Xrotation Zrotation Yrotation
			JOINT neck
			{
				OFFSET 0.000000 10.207942 -0.272212 
				CHANNELS 3 Xrotation Zrotation Yrotation
				JOINT head
				{
					OFFSET 0.000000 3.130431 0.000000 
					CHANNELS 3 Xrotation Zrotation Yrotation
					End Site
					{
						OFFSET 0.000000 3.130435 0.000000 
					}
				}
			}
			JOINT lCollar
			{
				OFFSET 3.470700 6.669187 -0.816635 
				CHANNELS 3 Yrotation Zrotation Xrotation
				JOINT lShldr
				{
					OFFSET 3.198488 0.000000 0.000000 
					CHANNELS 3 Zrotation Yrotation Xrotation
					JOINT lForeArm
					{
						OFFSET 10.139888 0.000000 0.000000 
						CHANNELS 3 Yrotation Zrotation Xrotation
						JOINT lHand
						{
							OFFSET 8.370511 0.000000 0.000000 
							CHANNELS 3 Zrotation Yrotation Xrotation
							End Site
							{
								OFFSET 4.083176 0.000000 0.000000 
							}
						}
					}
				}
			}
			JOINT rCollar
			{
				OFFSET -3.470700 6.669187 -0.816635 
				CHANNELS 3 Yrotation Zrotation Xrotation
				JOINT rShldr
				{
					OFFSET -3.198488 0.000000 0.000000 
					CHANNELS 3 Zrotation Yrotation Xrotation
					JOINT rForeArm
					{
						OFFSET -10.139888 0.000000 0.000000 
						CHANNELS 3 Yrotation Zrotation Xrotation
						JOINT rHand
						{
							OFFSET -8.370511 0.000000 0.000000 
							CHANNELS 3 Zrotation Yrotation Xrotation
							End Site
							{
								OFFSET -4.083176 0.000000 0.000000 
							}
						}
					}
				}
			}
		}
	}
	JOINT lThigh
	{
		OFFSET 5.308129 -1.633274 1.361059 
		CHANNELS 3 Xrotation Zrotation Yrotation
		JOINT lShin
		{
			OFFSET -2.041588 -20.007561 0.000000 
			CHANNELS 3 Xrotation Zrotation Yrotation
			JOINT lFoot
			{
				OFFSET 0.000000 -19.190928 -1.224953 
				CHANNELS 3 Xrotation Yrotation Zrotation
				End Site
				{
					OFFSET 0.000000 -2.449906 4.627600 
				}
			}
		}
	}
	JOINT rThigh
	{
		OFFSET -5.308129 -1.633274 1.361059 
		CHANNELS 3 Xrotation Zrotation Yrotation
		JOINT rShin
		{
			OFFSET 2.041588 -20.007561 0.000000 
			CHANNELS 3 Xrotation Zrotation Yrotation
			JOINT rFoot
			{
				OFFSET 0.000000 -19.190928 -1.224953 
				CHANNELS 3 Xrotation Yrotation Zrotation
				End Site
				{
					OFFSET 0.000000 -2.449906 4.627600 
				}
			}
		}
	}
}
MOTION
Frames: 16
Frame Time: 0.016667
-0.249489 87.176598 0.011088 6.318929 -4.562077 6.848147 -1.801448 -0.465094 -2.367714 7.705672 0.393592 -1.204503 -10.098294 2.432570 -13.930566 13.999789 7.369898 -6.375560 -0.966184 -2.090659 -0.113862 -80.335846 -4.242391 -8.815521 -21.534914 -0.154365 24.964428 1.561767 -3.369846 -3.070966 0.956406 2.080914 -0.113715 84.582901 -8.725411 -3.580122 25.362503 1.121137 -0.858315 -1.610299 3.366293 38.166965 -9.065636 5.885061 -4.455507 18.533579 7.156727 2.320570 -5.832087 -9.069217 -2.122609 -0.146008 11.466270 1.263718 0.974835 -4.265542 -1.135523 -13.009095 -12.341510 -2.193310 
-0.269461 87.156334 -0.107108 6.914485 -4.343302 7.461381 -1.978253 -0.499410 -2.446670 7.637579 0.474346 -1.238155 -9.548347 2.192133 -14.163460 14.224415 7.221340 -6.517246 -0.966184 -2.090659 -0.113862 -80.428810 -4.222812 -8.208848 -21.763844 -0.161354 24.967663 1.561617 -3.369855 -3.510419 0.956406 2.080914 -0.113715 84.631500 -8.563366 -4.664442 25.157495 1.124385 -0.860195 -1.604306 3.374012 38.362274 -10.453414 5.661505 -4.347958 19.479773 6.951355 2.449089 -4.691907 -8.966692 -1.893179 -0.526901 11.328323 0.908084 0.389084 -4.165372 -1.078816 -11.804490 -13.717364 -2.277506 
-0.267776 87.148216 -0.207463 7.481920 -4.279794 8.148787 -2.184856 -0.493681 -2.563289 7.520420 0.483727 -1.303594 -9.159792 2.025219 -14.295288 14.380788 7.131936 -6.613812 -0.966184 -2.090659 -0.113862 -80.534447 -4.115711 -7.581263 -22.058676 -0.171852 24.962610 1.560863 -3.360117 -3.813153 0.956406 2.080914 -0.113715 84.623817 -8.588415 -5.542748 25.177023 1.124075 -0.860016 -1.604269 3.373983 38.225552 -11.851964 5.545409 -4.454777 20.580479 6.765032 2.561175 -3.836515 -8.903434 -1.760801 -0.722191 11.224008 0.820334 -0.497606 -3.956869 -1.017120 -10.931725 -14.813514 -2.405980 
-0.221473 87.157631 -0.263707 7.815362 -4.324842 8.674032 -2.331937 -0.480154 -2.607068 7.412620 0.367573 -1.325560 -9.087035 1.999372 -14.404765 14.410559 7.150998 -6.666808 -0.966184 -2.090659 -0.113862 -80.628479 -3.978475 -6.865241 -22.335917 -0.174044 24.957624 1.560778 -3.360123 -3.979168 0.956406 2.080914 -0.113715 84.555344 -8.723998 -6.186045 25.372265 1.120982 -0.858225 -1.610141 3.366170 37.776337 -13.001328 5.388431 -4.524299 21.771599 6.647878 2.712519 -3.299536 -9.052835 -1.692831 -0.936690 11.247110 0.814413 -0.713454 -4.000041 -0.928183 -10.772507 -15.500764 -2.434268 
-0.145531 87.175529 -0.290322 7.904008 -4.372292 8.777891 -2.349319 -0.460084 -2.440430 7.402432 0.152420 -1.242769 -9.326222 2.071720 -14.582706 14.332440 7.200565 -6.740054 -0.966184 -2.090659 -0.113862 -80.665436 -3.867123 -6.041679 -22.666374 -0.182807 24.962284 1.560738 -3.360126 -4.057293 0.956406 2.080914 -0.113715 84.474060 -8.801061 -6.769909 25.528460 1.118512 -0.856785 -1.600152 3.366020 37.269100 -13.716114 5.271999 -4.292166 22.834047 6.549791 2.823548 -3.150132 -9.502157 -1.708005 -0.868320 11.262939 0.982626 -0.869025 -4.007089 -0.860631 -10.894819 -15.838968 -2.479756 
-0.056424 87.184837 -0.312214 7.923596 -4.372085 8.620152 -2.277609 -0.484703 -2.153076 7.490257 -0.071679 -1.105305 -9.591905 2.048375 -14.806562 14.224294 7.211622 -6.850227 -0.966184 -2.090659 -0.113862 -80.674362 -3.743639 -5.169216 -23.082626 -0.181421 24.958906 1.560718 -3.360127 -4.096355 0.956406 2.080914 -0.113715 84.347198 -8.802798 -7.233280 25.635843 1.116817 -0.855791 -1.599912 3.365840 36.683163 -14.131567 5.085167 -3.907124 23.586067 6.481533 2.883643 -3.199685 -10.362740 -1.741756 -0.722127 11.180011 1.421547 -0.917716 -4.025892 -0.860295 -11.142459 -16.068907 -2.567786 
0.049659 87.183769 -0.336112 7.913088 -4.304480 8.298258 -2.205959 -0.490783 -1.829229 7.529554 -0.259760 -0.952708 -9.770315 1.962924 -14.983553 14.155036 7.183301 -6.939748 -0.966184 -2.090659 -0.113862 -80.750824 -3.553998 -4.327176 -23.534540 -0.196380 24.957941 1.560683 -3.360130 -4.164715 0.956406 2.080914 -0.113715 84.108284 -8.715487 -7.416936 25.684654 1.116046 -0.855338 -1.599651 3.365647 36.048401 -14.321771 4.705560 -3.475650 23.804663 6.427963 2.925807 -3.200615 -11.504178 -1.814297 -0.742154 11.015439 1.886275 -0.478531 -4.223581 -0.883287 -11.711796 -16.237970 -2.647401 
0.173690 87.178833 -0.359356 7.911304 -4.130372 7.873194 -2.193659 -0.527820 -1.530805 7.500589 -0.394206 -0.796040 -9.835673 1.894470 -15.046033 14.125274 7.164215 -6.984341 -0.966184 -2.090659 -0.113862 -80.883385 -3.219484 -3.572740 -23.960146 -0.198926 24.957609 1.560648 -3.360132 -4.233075 0.956406 2.080914 -0.113715 83.806458 -8.437746 -7.478688 25.518696 1.118667 -0.856875 -1.599476 3.365521 35.628475 -14.194322 4.139443 -3.218971 23.287920 6.384973 2.888556 -3.015369 -12.580586 -1.859936 -0.546337 10.504978 2.270055 -0.479185 -4.164345 -0.874852 -12.007400 -16.153547 -2.835357 
0.310216 87.178474 -0.364731 7.899070 -3.878974 7.391837 -2.172043 -0.574634 -1.232149 7.510653 -0.483762 -0.659214 -9.813923 1.829919 -15.082639 14.115079 7.135171 -7.007885 -0.966184 -2.090659 -0.113862 -81.057991 -2.817936 -2.838891 -24.386007 -0.210306 24.954670 1.560643 -3.360133 -4.242840 0.956406 2.080914 -0.113715 83.498970 -8.022807 -7.637311 25.177023 1.124075 -0.860016 -1.599448 3.365501 35.560112 -13.739676 3.386386 -3.151702 22.002022 6.358318 2.793096 -2.350024 -13.117371 -1.790485 -0.634592 9.986876 2.528881 0.212955 -4.417723 -0.918547 -12.374803 -15.935045 -2.770844 
0.450883 87.177177 -0.344533 7.906060 -3.569353 6.916514 -2.151146 -0.615118 -0.989437 7.569316 -0.501457 -0.530785 -9.656726 1.714845 -15.061800 14.153502 7.056944 -7.010540 -0.966184 -2.090659 -0.113862 -81.268692 -2.398202 -2.164971 -24.675121 -0.212269 24.946222 1.560624 -3.360134 -4.281902 0.956406 2.080914 -0.113715 83.144676 -7.658481 -7.855256 24.923119 1.119249 -0.858213 -1.599574 3.365592 35.862850 -13.041214 2.538077 -3.381511 20.360031 6.336636 2.652346 -1.493823 -12.765585 -1.660905 -0.575774 9.248134 2.838094 0.593890 -4.524165 -0.946693 -12.795645 -15.807368 -2.868331 
0.592089 87.160927 -0.322654 7.963202 -3.385087 6.391667 -2.179436 -0.620936 -0.765846 7.637749 -0.519096 -0.422013 -9.462677 1.579629 -14.976275 14.172017 6.959515 -6.988262 -0.966184 -2.090659 -0.113862 -81.497543 -2.008698 -1.725930 -24.748034 -0.214546 24.951765 1.560549 -3.360140 -4.428387 0.956406 2.080914 -0.113715 82.751137 -7.374954 -8.004041 24.845022 1.120485 -0.858933 -1.599812 3.365765 36.439026 -12.454411 1.815402 -3.737936 19.125599 6.299985 2.547618 -1.495980 -11.939312 -1.774351 -0.702977 8.602295 3.241675 1.198045 -4.691036 -0.995287 -13.274810 -15.838707 -2.959875 
0.728950 87.152565 -0.296054 7.816232 -3.357261 5.691407 -2.188372 -0.583344 -0.525668 7.579188 -0.528281 -0.308194 -9.311775 1.525390 -14.808912 14.190883 6.891249 -6.924152 -0.966184 -2.090659 -0.113862 -81.755867 -1.630796 -1.649330 -24.544878 -0.211044 24.948420 1.560454 -3.360148 -4.613934 0.956406 2.080914 -0.113715 82.338501 -7.103043 -8.075315 24.884073 1.119867 -0.858574 -1.600076 3.365963 37.083553 -11.908943 1.346939 -3.622178 18.842564 6.280472 2.520339 -2.447816 -11.395342 -2.005034 -0.654166 8.096512 3.591852 1.733982 -4.826697 -1.025856 -13.594939 -15.754539 -3.020899 
0.857325 87.170113 -0.249568 7.386116 -3.399359 5.018206 -2.080421 -0.491642 -0.307376 7.510620 -0.474804 -0.186575 -9.249516 1.577624 -14.655029 14.190768 6.881529 -6.846973 -0.966184 -2.090659 -0.113862 -82.016945 -1.360664 -1.670395 -24.099125 -0.204332 24.955086 1.560384 -3.360153 -4.750653 0.956406 2.080914 -0.113715 81.983643 -6.759158 -8.234382 25.001219 1.118013 -0.857492 -1.610062 3.366109 37.581024 -11.078219 1.024734 -2.822605 18.765526 6.296866 2.531128 -3.126979 -11.271420 -2.185829 -0.673858 7.848676 3.808411 3.120947 -5.279070 -1.094319 -14.001745 -15.566811 -2.763498 
0.960476 87.192253 -0.212185 6.965676 -3.431576 4.668473 -1.924043 -0.383598 -0.247506 7.510139 -0.313550 -0.145874 -9.234034 1.669078 -14.569741 14.190883 6.891249 -6.797199 -0.966184 -2.090659 -0.113862 -82.207870 -1.243305 -1.603138 -23.433111 -0.194598 24.957134 1.560334 -3.360157 -4.848309 0.956406 2.080914 -0.113715 81.713707 -6.380584 -8.520456 25.264879 1.122683 -0.859212 -1.610204 3.366220 37.932587 -10.353234 0.731661 -1.816184 18.600645 6.290915 2.488271 -2.979330 -11.486456 -2.206394 -0.478464 7.454779 4.010584 3.894063 -5.468783 -1.162077 -14.185767 -15.591551 -2.739849 
1.037764 87.201668 -0.205456 6.847934 -3.383946 4.554354 -1.904565 -0.331147 -0.295909 7.441451 -0.107559 -0.163725 -9.166208 1.775854 -14.582350 14.200834 6.900854 -6.795081 -0.966184 -2.090659 -0.113862 -82.303383 -1.160082 -1.408499 -22.686064 -0.178331 24.957729 1.560339 -3.360157 -4.838543 0.956406 2.080914 -0.113715 81.636749 -6.167066 -8.850142 25.713943 1.115584 -0.855066 -1.610228 3.366238 37.991180 -10.048694 0.253792 -1.023479 18.392101 6.266987 2.491392 -2.670052 -11.621454 -2.174769 -0.624853 6.938048 4.225738 4.662926 -5.671045 -1.203686 -14.225978 -15.812252 -2.743880 
1.105220 87.219917 -0.206809 6.865707 -3.122027 4.389400 -1.992546 -0.376268 -0.340177 7.275422 0.089744 -0.195853 -8.982346 1.888198 -14.557611 14.260201 6.929314 -6.775405 -0.966184 -2.090659 -0.113862 -82.332573 -0.975706 -1.193648 -21.957428 -0.160953 24.966566 1.560454 -3.360148 -4.613934 0.956406 2.080914 -0.113715 81.721550 -6.110493 -9.193795 26.211897 1.116514 -0.854718 -1.610089 3.366131 37.649384 -9.733154 -0.449369 -0.580580 17.915581 6.209012 2.484845 -2.709550 -11.531160 -2.247334 -0.985902 6.133119 4.458401 5.396656 -5.798992 -1.254773 -15.700957 -16.112595 -3.254536 
